<?xml version="1.0" encoding="utf-8"?>
<!-- Generator: Adobe Illustrator 22.1.0, SVG Export Plug-In . SVG Version: 6.00 Build 0)  -->
<svg version="1.1" id="Layer_1" xmlns="http://www.w3.org/2000/svg" xmlns:xlink="http://www.w3.org/1999/xlink" x="0px" y="0px"
	 viewBox="0 0 600 600" style="enable-background:new 0 0 600 600;" xml:space="preserve">
<style type="text/css">
	.st0{fill:url(#SVGID_1_);}
	.st1{fill:url(#SVGID_2_);}
	.st2{fill:url(#SVGID_3_);}
	.st3{fill:url(#SVGID_4_);}
	.st4{fill:url(#SVGID_5_);}
	.st5{fill:url(#SVGID_6_);}
	.st6{fill:url(#SVGID_7_);}
</style>
<g>
	<g>
		<g>
			<g>
				<g>
					
						<linearGradient id="SVGID_1_" gradientUnits="userSpaceOnUse" x1="828.7452" y1="626.0159" x2="1177.3804" y2="626.0159" gradientTransform="matrix(-1 0 0 -1 1359.8652 929.0508)">
						<stop  offset="0" style="stop-color:#26274C"/>
						<stop  offset="1" style="stop-color:#2FB6C2"/>
					</linearGradient>
					<path class="st0" d="M182.5,360.8c40.2,0,63.8-34.2,88.7-70.4c32.9-47.8,66.9-97.2,143.7-97.2c64.1,0,116.2,49.3,116.2,109.9
						S479,412.9,414.9,412.9c-33,0-62.8-11.3-88.5-33.6L318,372l64.5-22.1l2.6,1.6c9.8,6.1,21.3,9.3,33.1,9.3
						c33.5,0,60.8-25.9,60.8-57.8c0-31.9-27.3-57.8-60.8-57.8c-40.8,0-66.6,35.3-93.8,72.8C284.7,372.7,182.5,360.8,182.5,360.8z"/>
				</g>
			</g>
			<g>
				<g>
					<linearGradient id="SVGID_2_" gradientUnits="userSpaceOnUse" x1="109.5679" y1="386.6641" x2="334.5967" y2="161.6353">
						<stop  offset="0" style="stop-color:#2FB6C2"/>
						<stop  offset="8.978957e-02" style="stop-color:#2EA5BC"/>
						<stop  offset="0.3913" style="stop-color:#2D72A8"/>
						<stop  offset="0.6544" style="stop-color:#2B4D99"/>
						<stop  offset="0.8661" style="stop-color:#2A3690"/>
						<stop  offset="1" style="stop-color:#2A2E8D"/>
					</linearGradient>
					<path class="st1" d="M418.2,245.3c-40.2,0-63.8,34.2-88.7,70.4c-32.9,47.8-66.9,97.2-143.7,97.2
						c-64.1,0-116.2-49.3-116.2-109.9s52.1-109.9,116.2-109.9c33,0,62.8,11.3,88.5,33.6l8.4,7.3l-64.5,22.1l-2.6-1.6
						c-9.8-6.1-21.3-9.3-33.1-9.3c-33.5,0-60.8,25.9-60.8,57.8c0,31.9,27.3,57.8,60.8,57.8c40.8,0,70.6-31.1,97.8-68.6
						C320,237.6,418.2,245.3,418.2,245.3z"/>
				</g>
			</g>
			<linearGradient id="SVGID_3_" gradientUnits="userSpaceOnUse" x1="69.5867" y1="263.4722" x2="282.7101" y2="263.4722">
				<stop  offset="0" style="stop-color:#67C3CA"/>
				<stop  offset="1" style="stop-color:#282F8C"/>
			</linearGradient>
			<path class="st2" d="M74.2,333.8c-3-9.8-4.6-20.1-4.6-30.7c0-60.6,52.1-109.9,116.2-109.9c33,0,62.8,11.3,88.5,33.6l8.4,7.3
				c0,0-81.9-45.4-155.5-2.2C127.2,231.8,69.6,271.8,74.2,333.8"/>
			
				<linearGradient id="SVGID_4_" gradientUnits="userSpaceOnUse" x1="1044.0468" y1="-73.0116" x2="1257.1702" y2="-73.0116" gradientTransform="matrix(-1 0 0 -1 1575.166 269.5908)">
				<stop  offset="0" style="stop-color:#394196"/>
				<stop  offset="2.676332e-02" style="stop-color:#384092"/>
				<stop  offset="0.2452" style="stop-color:#31377A"/>
				<stop  offset="0.4737" style="stop-color:#2D3168"/>
				<stop  offset="0.717" style="stop-color:#2A2D5D"/>
				<stop  offset="1" style="stop-color:#292C5A"/>
			</linearGradient>
			<path class="st3" d="M526.5,272.3c3,9.8,4.6,20.1,4.6,30.7c0,60.6-52.1,109.9-116.2,109.9c-33,0-62.8-11.3-88.5-33.6L318,372
				c0,0,81.9,45.4,155.5,2.2C473.5,374.3,531.1,334.3,526.5,272.3"/>
			<linearGradient id="SVGID_5_" gradientUnits="userSpaceOnUse" x1="177.0546" y1="303.2949" x2="415.9549" y2="303.2949">
				<stop  offset="0" style="stop-color:#67C6EA"/>
				<stop  offset="0.3584" style="stop-color:#293C92"/>
				<stop  offset="1" style="stop-color:#3B2A5E"/>
			</linearGradient>
			<path class="st4" d="M177.1,360.5c0,0,75.8,21.7,128.2-27.7C332.7,306.8,358,248.1,416,245c0,0-84.8-23.3-137.7,47.7
				C227.5,360.9,195.1,361.3,177.1,360.5z"/>
		</g>
		<g>
			<linearGradient id="SVGID_6_" gradientUnits="userSpaceOnUse" x1="0.7043" y1="149.8639" x2="599.9969" y2="149.8639">
				<stop  offset="0" style="stop-color:#282F8C"/>
				<stop  offset="1" style="stop-color:#67C3CA"/>
			</linearGradient>
			<path class="st5" d="M600,300c0-155.2-141.8-257.2-281.6-257.2c-178.7,0-273.4,117-295.8,228.9l-22,0
				c13.7-153.1,142.3-272,299-272C465.6-0.3,600,134.2,600,300L600,300z"/>
			
				<linearGradient id="SVGID_7_" gradientUnits="userSpaceOnUse" x1="1419.7695" y1="-72.8472" x2="2019.0652" y2="-72.8472" gradientTransform="matrix(-1 0 0 -1 2019.7695 376.9668)">
				<stop  offset="0" style="stop-color:#282F8C"/>
				<stop  offset="1" style="stop-color:#67C3CA"/>
			</linearGradient>
			<path class="st6" d="M0.7,299.7c0,155.2,141.8,257.2,281.6,257.2c178.7,0,273.4-117,295.8-228.9l22,0
				c-13.7,153.1-142.4,272-299,272C135.1,599.9,0.7,465.5,0.7,299.7L0.7,299.7z"/>
		</g>
	</g>
</g>
</svg>
