<?xml version="1.0" encoding="UTF-8"?>
<svg xmlns="http://www.w3.org/2000/svg" xmlns:xlink="http://www.w3.org/1999/xlink" width="30pt" height="30pt" viewBox="0 0 30 30" version="1.1">
<defs>
<linearGradient id="linear0" gradientUnits="userSpaceOnUse" x1="828.7452" y1="626.0159" x2="1177.3804" y2="626.0159" gradientTransform="matrix(-0.05,0,0,-0.05,67.99326,46.45254)">
<stop offset="0" style="stop-color:rgb(14.901961%,15.294118%,29.803922%);stop-opacity:1;"/>
<stop offset="1" style="stop-color:rgb(18.431373%,71.372549%,76.078431%);stop-opacity:1;"/>
</linearGradient>
<linearGradient id="linear1" gradientUnits="userSpaceOnUse" x1="109.5679" y1="386.6641" x2="334.5967" y2="161.6353" gradientTransform="matrix(0.05,0,0,0.05,0,0)">
<stop offset="0" style="stop-color:rgb(18.431373%,71.372549%,76.078431%);stop-opacity:1;"/>
<stop offset="0.0897896" style="stop-color:rgb(18.039216%,64.705882%,73.72549%);stop-opacity:1;"/>
<stop offset="0.3913" style="stop-color:rgb(17.647059%,44.705882%,65.882353%);stop-opacity:1;"/>
<stop offset="0.6544" style="stop-color:rgb(16.862745%,30.196078%,60%);stop-opacity:1;"/>
<stop offset="0.8661" style="stop-color:rgb(16.470588%,21.176471%,56.470588%);stop-opacity:1;"/>
<stop offset="1" style="stop-color:rgb(16.470588%,18.039216%,55.294118%);stop-opacity:1;"/>
</linearGradient>
<linearGradient id="linear2" gradientUnits="userSpaceOnUse" x1="69.5867" y1="263.4722" x2="282.7101" y2="263.4722" gradientTransform="matrix(0.05,0,0,0.05,0,0)">
<stop offset="0" style="stop-color:rgb(40.392157%,76.470588%,79.215686%);stop-opacity:1;"/>
<stop offset="1" style="stop-color:rgb(15.686275%,18.431373%,54.901961%);stop-opacity:1;"/>
</linearGradient>
<linearGradient id="linear3" gradientUnits="userSpaceOnUse" x1="1044.0468" y1="-73.0116" x2="1257.1702" y2="-73.0116" gradientTransform="matrix(-0.05,0,0,-0.05,78.7583,13.47954)">
<stop offset="0" style="stop-color:rgb(22.352941%,25.490196%,58.823529%);stop-opacity:1;"/>
<stop offset="0.0267633" style="stop-color:rgb(21.960784%,25.098039%,57.254902%);stop-opacity:1;"/>
<stop offset="0.2452" style="stop-color:rgb(19.215686%,21.568627%,47.843137%);stop-opacity:1;"/>
<stop offset="0.4737" style="stop-color:rgb(17.647059%,19.215686%,40.784314%);stop-opacity:1;"/>
<stop offset="0.717" style="stop-color:rgb(16.470588%,17.647059%,36.470588%);stop-opacity:1;"/>
<stop offset="1" style="stop-color:rgb(16.078431%,17.254902%,35.294118%);stop-opacity:1;"/>
</linearGradient>
<linearGradient id="linear4" gradientUnits="userSpaceOnUse" x1="177.0546" y1="303.2949" x2="415.9549" y2="303.2949" gradientTransform="matrix(0.05,0,0,0.05,0,0)">
<stop offset="0" style="stop-color:rgb(40.392157%,77.647059%,91.764706%);stop-opacity:1;"/>
<stop offset="0.3584" style="stop-color:rgb(16.078431%,23.529412%,57.254902%);stop-opacity:1;"/>
<stop offset="1" style="stop-color:rgb(23.137255%,16.470588%,36.862745%);stop-opacity:1;"/>
</linearGradient>
<linearGradient id="linear5" gradientUnits="userSpaceOnUse" x1="0.7043" y1="149.8639" x2="599.9969" y2="149.8639" gradientTransform="matrix(0.05,0,0,0.05,0,0)">
<stop offset="0" style="stop-color:rgb(15.686275%,18.431373%,54.901961%);stop-opacity:1;"/>
<stop offset="1" style="stop-color:rgb(40.392157%,76.470588%,79.215686%);stop-opacity:1;"/>
</linearGradient>
<linearGradient id="linear6" gradientUnits="userSpaceOnUse" x1="1419.7695" y1="-72.8472" x2="2019.0652" y2="-72.8472" gradientTransform="matrix(-0.05,0,0,-0.05,100.988475,18.84834)">
<stop offset="0" style="stop-color:rgb(15.686275%,18.431373%,54.901961%);stop-opacity:1;"/>
<stop offset="1" style="stop-color:rgb(40.392157%,76.470588%,79.215686%);stop-opacity:1;"/>
</linearGradient>
</defs>
<g id="surface1">
<path style=" stroke:none;fill-rule:nonzero;fill:url(#linear0);" d="M 9.125 18.039062 C 11.136719 18.039062 12.316406 16.328125 13.558594 14.519531 C 15.203125 12.128906 16.90625 9.660156 20.746094 9.660156 C 23.949219 9.660156 26.554688 12.125 26.554688 15.15625 C 26.554688 18.183594 23.949219 20.644531 20.746094 20.644531 C 19.09375 20.644531 17.605469 20.078125 16.320312 18.964844 L 15.898438 18.601562 L 19.125 17.496094 L 19.253906 17.574219 C 19.746094 17.878906 20.320312 18.039062 20.910156 18.039062 C 22.585938 18.039062 23.949219 16.746094 23.949219 15.148438 C 23.949219 13.554688 22.585938 12.261719 20.910156 12.261719 C 18.871094 12.261719 17.578125 14.023438 16.21875 15.898438 C 14.234375 18.636719 9.125 18.039062 9.125 18.039062 Z M 9.125 18.039062 "/>
<path style=" stroke:none;fill-rule:nonzero;fill:url(#linear1);" d="M 20.910156 12.265625 C 18.898438 12.265625 17.71875 13.976562 16.476562 15.785156 C 14.828125 18.175781 13.128906 20.644531 9.289062 20.644531 C 6.085938 20.644531 3.480469 18.179688 3.480469 15.148438 C 3.480469 12.121094 6.085938 9.65625 9.289062 9.65625 C 10.941406 9.65625 12.429688 10.21875 13.714844 11.335938 L 14.136719 11.699219 L 10.910156 12.804688 L 10.78125 12.726562 C 10.289062 12.421875 9.714844 12.261719 9.125 12.261719 C 7.449219 12.261719 6.085938 13.554688 6.085938 15.148438 C 6.085938 16.746094 7.449219 18.039062 9.125 18.039062 C 11.164062 18.039062 12.65625 16.484375 14.015625 14.609375 C 16 11.878906 20.910156 12.265625 20.910156 12.265625 Z M 20.910156 12.265625 "/>
<path style=" stroke:none;fill-rule:nonzero;fill:url(#linear2);" d="M 3.710938 16.691406 C 3.558594 16.199219 3.480469 15.683594 3.480469 15.15625 C 3.480469 12.125 6.085938 9.660156 9.289062 9.660156 C 10.941406 9.660156 12.429688 10.226562 13.714844 11.339844 L 14.136719 11.703125 C 14.136719 11.703125 10.039062 9.433594 6.359375 11.59375 C 6.359375 11.589844 3.480469 13.589844 3.710938 16.691406 "/>
<path style=" stroke:none;fill-rule:nonzero;fill:url(#linear3);" d="M 26.324219 13.613281 C 26.476562 14.105469 26.554688 14.621094 26.554688 15.148438 C 26.554688 18.179688 23.949219 20.644531 20.746094 20.644531 C 19.09375 20.644531 17.605469 20.078125 16.320312 18.964844 L 15.898438 18.601562 C 15.898438 18.601562 19.996094 20.871094 23.675781 18.710938 C 23.675781 18.714844 26.554688 16.714844 26.324219 13.613281 "/>
<path style=" stroke:none;fill-rule:nonzero;fill:url(#linear4);" d="M 8.855469 18.023438 C 8.855469 18.023438 12.644531 19.109375 15.265625 16.640625 C 16.636719 15.339844 17.898438 12.40625 20.800781 12.25 C 20.800781 12.25 16.558594 11.085938 13.914062 14.636719 C 11.375 18.046875 9.753906 18.066406 8.855469 18.023438 Z M 8.855469 18.023438 "/>
<path style=" stroke:none;fill-rule:nonzero;fill:url(#linear5);" d="M 30 15 C 30 7.238281 22.910156 2.140625 15.921875 2.140625 C 6.984375 2.140625 2.25 7.988281 1.128906 13.585938 L 0.03125 13.585938 C 0.714844 5.929688 7.144531 -0.015625 14.980469 -0.015625 C 23.28125 -0.015625 30 6.710938 30 15 Z M 30 15 "/>
<path style=" stroke:none;fill-rule:nonzero;fill:url(#linear6);" d="M 0.0351562 14.984375 C 0.0351562 22.746094 7.125 27.84375 14.113281 27.84375 C 23.050781 27.84375 27.785156 21.996094 28.90625 16.398438 L 30.003906 16.398438 C 29.320312 24.054688 22.886719 30 15.054688 30 C 6.753906 29.996094 0.0351562 23.273438 0.0351562 14.984375 Z M 0.0351562 14.984375 "/>
</g>
</svg>
