<?xml version="1.0" encoding="utf-8"?>
<!-- Generator: Adobe Illustrator 22.1.0, SVG Export Plug-In . SVG Version: 6.00 Build 0)  -->
<svg version="1.1" id="Layer_1" xmlns="http://www.w3.org/2000/svg" xmlns:xlink="http://www.w3.org/1999/xlink" x="0px" y="0px"
	 viewBox="0 0 243 53" style="enable-background:new 0 0 243 53;" xml:space="preserve">
<style type="text/css">
	.st0{fill:#4B8EEC;}
	.st1{fill:#373E96;}
</style>
<path class="st0" d="M26.6,53h-9C4,53,0,49.1,0,38.1h5.8c0,7.5,2.4,9.5,12,9.5h8.8c9.4,0,11.5-2.8,11.5-9.4v-1
	c0-5.8-0.6-8.8-15.4-8.8h-3.3c-15.2,0-19.1-2.8-19.1-13.8v-1.3c0-8,4-13.3,17.5-13.3h8.5c12.2,0,16.4,4,16.4,13.8h-5.9
	c0-6-2.1-8.4-10.6-8.4h-8.3C8.9,5.4,5.9,8,5.9,13.5v1.3c0,6.9,1.8,8.4,15,8.4H24c16.4,0,19.9,3.5,19.9,13.8v1.1
	C43.9,48,40.5,53,26.6,53"/>
<path class="st0" d="M65.6,29.9c-0.2-0.4-0.4-1.2-0.5-2.2c-1,1.8-3.1,2.4-6.3,2.4h-4.4c-5.6,0-7.4-2.4-7.4-6.4v-0.4
	c0-3.5,1.6-6.2,6.7-6.2h11.2v-1.9c0-2.7-1.1-3.7-5.1-3.7h-4.4c-3.3,0-4.6,0.8-5,2.9h-3.2c0.5-3.8,2.6-5.7,8-5.7h4.6
	c5.7,0,8,1.9,8,6.4v9.8c0,2.2,0.3,4.2,0.7,5H65.6z M64.8,19.7H54.1c-3.5,0-4.2,1.6-4.2,3.7v0.3c0,2,1.1,3.7,4.9,3.7h4.6
	c4,0,5.4-1.3,5.4-4.3V19.7z"/>
<path class="st0" d="M72.4,0.3h3.1v4.1h-3.1V0.3z M72.4,8.7h3.1v21.1h-3.1V8.7z"/>
<path class="st0" d="M93,30h-5.1c-6.7,0-7.8-2.1-7.8-6.3h3.1c0,2.8,0.6,3.6,5.1,3.6h4.4c4,0,4.7-1.4,4.7-3.3v-0.4
	c0-2.2-0.8-3.3-5.3-3.3h-4.7c-5.5,0-7.1-1.5-7.1-5.1v-0.5c0-4,2.3-6.1,7.3-6.1H93c4.9,0,7,1.9,7,6.2h-3.1c0-2.5-1.1-3.4-4.2-3.4
	h-4.9c-3.2,0-4.4,1-4.4,3.5v0.4c0,1.8,0.8,2.8,5.2,2.8h4.4c5.9,0,7.5,1.6,7.5,5.7v0.5C100.5,27.5,99.2,30,93,30"/>
<path class="st0" d="M121.3,29.8V18.3c0-5.4-1.6-6.8-5.4-6.8h-2.3c-4.2,0-6.3,2.2-6.3,7v11.4h-3.1V0.3h3.1v11.4
	c1.2-2,3.4-3.2,6.4-3.2h2.6c5.8,0,8,2.7,8,9.4v11.9H121.3z"/>
<path class="st0" d="M144.9,29.9l-0.1-2.4c-1.2,1.6-3.2,2.5-6.1,2.5h-3c-6.1,0-7.9-1.9-7.9-8.3V8.8h3v12.7c0,4.3,1.1,5.5,5.4,5.5
	h2.7c4.3,0,5.7-2,5.7-5.9V8.8h3v21H144.9z"/>
<path class="st0" d="M168.7,29.9v-13c0-3.9-2.2-5.3-5.5-5.3h-2.4c-4.5,0-6.2,2.7-6.2,4.5v13.8h-3.2V8.6h2.8l0.1,3
	c1.3-1.9,3.7-3,6.6-3h2.9c5.2,0,7.9,2.7,7.9,7.9v13.4H168.7z"/>
<path class="st0" d="M192.5,29.9l-4-7.3c-1.3-2.3-2.5-3.1-5.1-3.1h-4.5v10.4h-3.1V0.3h3.1v16.6l11.8-8.2h4.3l-11.7,8.3l-0.1,0h1.3
	c3.4,0,5,1,6.5,3.7l5,9.1H192.5z"/>
<path class="st0" d="M216.7,29.9c-0.2-0.4-0.4-1.2-0.5-2.2c-1,1.8-3.1,2.4-6.3,2.4h-4.4c-5.6,0-7.4-2.4-7.4-6.4v-0.4
	c0-3.5,1.6-6.2,6.7-6.2h11.2v-1.9c0-2.7-1.1-3.7-5.1-3.7h-4.4c-3.3,0-4.6,0.8-5,2.9h-3.2c0.5-3.8,2.6-5.7,8-5.7h4.6
	c5.7,0,8,1.9,8,6.4v9.8c0,2.2,0.3,4.2,0.7,5H216.7z M216,19.7h-10.7c-3.5,0-4.2,1.6-4.2,3.7v0.3c0,2,1.1,3.7,4.9,3.7h4.6
	c4,0,5.4-1.3,5.4-4.3V19.7z"/>
<path class="st0" d="M239.9,29.9v-13c0-3.9-2.2-5.3-5.5-5.3h-2.4c-4.5,0-6.2,2.7-6.2,4.5v13.8h-3.2V8.6h2.8l0.1,3
	c1.3-1.9,3.7-3,6.6-3h2.9c5.2,0,7.9,2.7,7.9,7.9v13.4H239.9z"/>
<path class="st1" d="M55.7,47.2h-2.1c-3.1,0-4.1-0.9-4.1-3.5h1.3c0,1.7,0.6,2.2,2.8,2.2h2c2.2,0,2.7-0.6,2.7-2.2v-0.2
	c0-1.4-0.1-2.1-3.6-2.1H54c-3.5,0-4.4-0.6-4.4-3.2V38c0-1.9,0.9-3.1,4.1-3.1h2c2.8,0,3.8,0.9,3.8,3.2H58c0-1.4-0.5-2-2.5-2h-1.9
	c-2.1,0-2.7,0.6-2.7,1.9v0.3c0,1.6,0.4,2,3.5,2h0.7c3.8,0,4.6,0.8,4.6,3.2v0.2C59.7,46.1,58.9,47.2,55.7,47.2"/>
<path class="st1" d="M65.8,47.9c-0.7,1.9-1.4,2.4-3.4,2.4h-1v-1.2h0.9c1.5,0,1.8-0.2,2.3-1.6l0.1-0.4h-0.4l-3.8-8.6H62l3.3,7.6
	l2.9-7.6h1.4L65.8,47.9z"/>
<path class="st1" d="M75.7,47.2h-2.1c-2.8,0-3.2-0.9-3.2-2.6h1.3c0,1.1,0.2,1.5,2.1,1.5h1.8c1.6,0,1.9-0.6,1.9-1.4v-0.2
	c0-0.9-0.3-1.3-2.2-1.3h-1.9c-2.2,0-2.9-0.6-2.9-2.1v-0.2c0-1.6,1-2.5,3-2.5h2.2c2,0,2.8,0.8,2.8,2.5h-1.3c0-1-0.5-1.4-1.7-1.4h-2
	c-1.3,0-1.8,0.4-1.8,1.4v0.2c0,0.7,0.3,1.1,2.1,1.1h1.8c2.4,0,3.1,0.6,3.1,2.3v0.2C78.8,46.2,78.3,47.2,75.7,47.2"/>
<path class="st1" d="M82.9,39.8v4.7c0,1,0.3,1.5,1.5,1.5h2.4v1.2h-2.5c-2,0-2.6-0.8-2.6-2.6v-4.8h-1.8v-1.2h1.8v-2.1h1.2v2.1h4.3
	v1.2H82.9z"/>
<path class="st1" d="M93.6,47.2h-1.8c-2.5,0-3.6-1-3.6-3.6V42c0-2.6,1.2-3.6,3.6-3.6h1.6c2.5,0,3.4,1.2,3.4,3.7V43h-7.4v0.6
	c0,2,0.7,2.4,2.3,2.4h1.8c1.6,0,2.1-0.4,2.1-1.3h1.3C96.8,46.3,95.9,47.2,93.6,47.2 M95.6,42.1c0-1.9-0.6-2.5-2.2-2.5h-1.6
	c-1.5,0-2.3,0.3-2.3,2.4v0.1L95.6,42.1L95.6,42.1z"/>
<path class="st1" d="M109.6,47.2v-5.7c0-1.2-0.5-1.9-1.5-1.9h-1.2c-1.4,0-1.8,0.8-1.8,1.9v5.7h-1.2v-5.7c0-1.4-0.5-1.9-1.6-1.9h-0.9
	c-1.4,0-1.8,0.9-1.8,1.8v5.7h-1.3v-8.8h1.1l0,1.1c0.4-0.7,1.1-1.1,2.1-1.1h1c1,0,1.8,0.2,2.2,1.2c0.4-0.7,1.1-1.2,2.2-1.2h1.5
	c1.5,0,2.5,0.9,2.5,2.9v5.9H109.6z"/>
<polygon class="st1" points="123,47.1 121.2,47.1 116.7,35 118.1,35 122.1,45.9 126.1,35 127.5,35 "/>
<path class="st1" d="M128.9,35h1.3v1.7h-1.3V35z M128.9,38.5h1.3v8.6h-1.3V38.5z"/>
<path class="st1" d="M137.3,47.2h-1.8c-2.5,0-3.6-1-3.6-3.6V42c0-2.6,1.2-3.6,3.6-3.6h1.6c2.5,0,3.4,1.2,3.4,3.7V43h-7.4v0.6
	c0,2,0.7,2.4,2.3,2.4h1.8c1.6,0,2.1-0.4,2.1-1.3h1.3C140.6,46.3,139.6,47.2,137.3,47.2 M139.3,42.1c0-1.9-0.6-2.5-2.2-2.5h-1.6
	c-1.5,0-2.3,0.3-2.3,2.4v0.1L139.3,42.1L139.3,42.1z"/>
<path class="st1" d="M144.6,39.8v4.7c0,1,0.3,1.5,1.5,1.5h2.4v1.2H146c-2,0-2.6-0.8-2.6-2.6v-4.8h-1.8v-1.2h1.8v-2.1h1.2v2.1h4.3
	v1.2H144.6z"/>
<path class="st1" d="M157.3,47.2v-5.3c0-1.6-0.9-2.2-2.2-2.2h-1c-1.8,0-2.5,1.1-2.5,1.9v5.6h-1.3v-8.8h1.2l0,1.2
	c0.5-0.8,1.5-1.2,2.7-1.2h1.2c2.1,0,3.2,1.1,3.2,3.2v5.5H157.3z"/>
<path class="st1" d="M167.5,47.1c-0.1-0.2-0.2-0.5-0.2-0.9c-0.4,0.7-1.3,1-2.6,1h-1.8c-2.3,0-3-1-3-2.6v-0.2c0-1.4,0.6-2.6,2.7-2.6
	h4.6v-0.8c0-1.1-0.5-1.5-2.1-1.5h-1.8c-1.4,0-1.9,0.3-2,1.2h-1.3c0.2-1.6,1.1-2.3,3.3-2.3h1.9c2.3,0,3.3,0.8,3.3,2.6v4
	c0,0.9,0.1,1.7,0.3,2.1H167.5z M167.2,43h-4.4c-1.4,0-1.7,0.6-1.7,1.5v0.1c0,0.8,0.5,1.5,2,1.5h1.9c1.7,0,2.2-0.5,2.2-1.7V43z"/>
<path class="st1" d="M181.3,47.2v-5.7c0-1.2-0.5-1.9-1.5-1.9h-1.2c-1.4,0-1.8,0.8-1.8,1.9v5.7h-1.2v-5.7c0-1.4-0.5-1.9-1.6-1.9H173
	c-1.4,0-1.8,0.9-1.8,1.8v5.7h-1.3v-8.8h1.1l0,1.1c0.4-0.7,1.1-1.1,2.1-1.1h1c1,0,1.8,0.2,2.2,1.2c0.4-0.7,1.1-1.2,2.2-1.2h1.5
	c1.5,0,2.5,0.9,2.5,2.9v5.9H181.3z"/>
</svg>
